<svg width="38" height="38" viewBox="0 0 38 38" fill="none" xmlns="http://www.w3.org/2000/svg">
<path d="M26.9063 9.17191C26.9063 9.55202 26.7936 9.92359 26.5824 10.2396C26.3712 10.5557 26.071 10.802 25.7199 10.9475C25.3687 11.093 24.9823 11.131 24.6095 11.0569C24.2367 10.9827 23.8942 10.7997 23.6254 10.5309C23.3566 10.2621 23.1736 9.91965 23.0995 9.54685C23.0253 9.17404 23.0634 8.78761 23.2088 8.43644C23.3543 8.08526 23.6006 7.78511 23.9167 7.57393C24.2327 7.36275 24.6043 7.25003 24.9844 7.25003C25.4941 7.25003 25.9829 7.45252 26.3434 7.81294C26.7038 8.17336 26.9063 8.6622 26.9063 9.17191ZM34.7091 20.0049C31.6069 25.5943 25.83 28.6149 17.5339 28.9896L14.0105 37.2233C13.9115 37.4545 13.7466 37.6514 13.5364 37.7895C13.3262 37.9276 13.08 38.0009 12.8285 38H12.7469C12.4828 37.9835 12.2304 37.8856 12.0242 37.7199C11.818 37.5541 11.6682 37.3286 11.5953 37.0743L9.22502 28.7734L0.928929 26.3983C0.673913 26.3267 0.447366 26.1778 0.280467 25.9721C0.113568 25.7664 0.0145219 25.514 -0.0030396 25.2497C-0.0206011 24.9854 0.0441854 24.7222 0.182403 24.4962C0.320621 24.2703 0.525476 24.0927 0.768772 23.988L9.00241 20.4645C9.37877 12.1716 12.3993 6.3964 17.9856 3.29257C21.9494 1.09203 26.4322 0.755697 29.4976 0.8614C32.4829 0.9639 35.2632 1.54527 35.7213 1.82234C35.9083 1.93258 36.0643 2.08854 36.1745 2.27558C36.4452 2.73202 37.0281 5.51234 37.1355 8.49765C37.2444 11.5566 36.9096 16.041 34.7091 20.0049ZM34.0204 3.97804C31.7542 3.49757 23.7544 2.21632 17.9567 6.34035C16.9971 7.02501 16.1351 7.83696 15.3942 8.7539C15.3335 9.59057 15.4561 10.4304 15.7535 11.2148C16.0508 11.9992 16.5157 12.7093 17.1158 13.2955C17.7159 13.8816 18.4366 14.3298 19.2278 14.6087C20.0189 14.8877 20.8614 14.9906 21.6964 14.9103C21.8845 14.8922 22.0743 14.9159 22.2522 14.9798C22.43 15.0436 22.5916 15.146 22.7252 15.2797C22.8588 15.4133 22.9612 15.5748 23.0251 15.7527C23.0889 15.9306 23.1127 16.1204 23.0946 16.3085C23.0144 17.1438 23.1176 17.9865 23.3969 18.7778C23.6762 19.5692 24.1249 20.29 24.7116 20.8899C25.2983 21.4899 26.0089 21.9546 26.7938 22.2515C27.5786 22.5484 28.4189 22.6704 29.2558 22.609C30.1693 21.868 30.9775 21.0059 31.6581 20.0465C35.7821 14.2537 34.5009 6.24745 34.0204 3.97804Z" fill="#1C1C1C"/>
</svg>
